<svg width="221" height="221" viewBox="0 0 221 221" fill="none" xmlns="http://www.w3.org/2000/svg">
<g clip-path="url(#clip0_44_4)">
<path d="M218.725 2.29578H2.29858V218.722H218.725V2.29578Z" stroke="black" stroke-width="3.048" stroke-miterlimit="10"/>
<path d="M21.8724 24.9658C24.2885 24.9658 26.2472 23.0071 26.2472 20.591C26.2472 18.1749 24.2885 16.2162 21.8724 16.2162C19.4562 16.2162 17.4976 18.1749 17.4976 20.591C17.4976 23.0071 19.4562 24.9658 21.8724 24.9658Z" fill="black"/>
<path d="M37.7244 24.9663C40.1406 24.9663 42.0992 23.0076 42.0992 20.5915C42.0992 18.1753 40.1406 16.2166 37.7244 16.2166C35.3083 16.2166 33.3496 18.1753 33.3496 20.5915C33.3496 23.0076 35.3083 24.9663 37.7244 24.9663Z" fill="black"/>
<path d="M53.5806 24.9663C55.9968 24.9663 57.9554 23.0076 57.9554 20.5915C57.9554 18.1753 55.9968 16.2166 53.5806 16.2166C51.1645 16.2166 49.2058 18.1753 49.2058 20.5915C49.2058 23.0076 51.1645 24.9663 53.5806 24.9663Z" fill="black"/>
<path d="M36.0833 87.1353V57.9037H39.5361V72.2935L50.4731 57.9037H54.6491L43.3866 72.6189L55.0106 87.1353H50.437L39.5361 73.3782V87.1353H36.0833Z" fill="black" stroke="black" stroke-width="0.456" stroke-miterlimit="10"/>
<path d="M59.9116 87.1358V76.2711L66.7269 57.9041H71.7706L78.5859 76.2711V87.1358H75.1331V78.9647H63.3464V87.1358H59.8936H59.9116ZM63.7622 75.7107H74.7534L69.2578 60.8327L63.7622 75.7107Z" fill="black" stroke="black" stroke-width="0.456" stroke-miterlimit="10"/>
<path d="M86.1584 87.1358V57.9041H91.8891L102.031 83.231V57.9041H105.484V87.1358H99.9879L89.6113 61.1943V87.1358H86.1584Z" fill="black" stroke="black" stroke-width="0.456" stroke-miterlimit="10"/>
<path d="M113.073 87.1358V76.2711L119.889 57.9041H124.932L131.748 76.2711V87.1358H128.295V78.9647H116.508V87.1358H113.055H113.073ZM116.924 75.7107H127.915L122.42 60.8327L116.924 75.7107Z" fill="black" stroke="black" stroke-width="0.456" stroke-miterlimit="10"/>
<path d="M139.325 87.1358V57.9041H145.056L155.197 83.231V57.9041H158.65V87.1358H153.154L142.778 61.1943V87.1358H139.325Z" fill="black" stroke="black" stroke-width="0.456" stroke-miterlimit="10"/>
<path d="M166.241 87.1358V76.2711L173.056 57.9041H178.1L184.915 76.2711V87.1358H181.462V78.9647H169.676V87.1358H166.223H166.241ZM170.092 75.7107H181.083L175.587 60.8327L170.092 75.7107Z" fill="black" stroke="black" stroke-width="0.456" stroke-miterlimit="10"/>
<path d="M61.0123 108.304H70.3765V148.762H79.5781V155.668H70.3765V170.401H63.0551V155.668H35.8843V143.827C35.8843 141.441 36.2278 140.681 37.8367 138.548L61.0123 108.304ZM63.0551 148.762V116.656L43.8023 141.947C43.3684 142.543 43.2057 142.977 43.2057 143.827V148.762H63.0551Z" fill="black"/>
<path d="M93.4812 170.402V161.978C93.4812 155.849 96.0302 151.077 100.893 147.931L117.597 137.193C122.622 133.957 124.322 131.318 124.322 126.979V125.027C124.322 118.302 120.399 114.379 113.511 114.379H111.812C104.997 114.379 101.164 118.211 100.821 125.533H93.4993C93.7524 114.542 101.002 107.473 111.812 107.473H113.511C124.069 107.473 131.661 114.632 131.661 124.774V126.997C131.661 133.722 128.932 138.242 121.773 142.833L104.744 153.825C101.942 155.705 100.821 158.001 100.821 161.996V163.532H131.065V170.438H93.4993L93.4812 170.402Z" fill="black"/>
<path d="M162.302 170.402H153.606L168.683 147.913H164.091C153.606 147.913 145.941 140.754 145.941 130.703V124.737C145.941 114.686 153.606 107.437 164.091 107.437H166.984C177.469 107.437 185.134 114.686 185.134 124.737V129.853C185.134 135.729 183.941 137.862 180.361 143.231L162.302 170.402ZM177.794 125.008C177.794 118.356 173.709 114.361 166.984 114.361H164.091C157.367 114.361 153.281 118.356 153.281 125.008V130.468C153.281 137.121 157.367 141.025 164.091 141.025H166.984C173.709 141.025 177.794 137.102 177.794 130.468V125.008Z" fill="black"/>
</g>
<defs>
<clipPath id="clip0_44_4">
<rect width="221" height="221" fill="white"/>
</clipPath>
</defs>
</svg>
