<svg width="512" height="73" viewBox="0 0 512 73" fill="none" xmlns="http://www.w3.org/2000/svg">
<g clip-path="url(#clip0_73_5)">
<rect width="512" height="73" fill="white"/>
<path d="M19.4514 70H7.75258V4.39683H19.4514V35.0836L39.9692 4.39683H53.5578L31.3301 37.2434L54.3677 70H39.5193L19.4514 40.5731V70ZM71.2311 70H59.5323V43.4528L73.5709 4.39683H90.4891L104.528 43.4528V70H92.8289V53.8017H71.2311V70ZM82.03 13.5759L71.3211 43.9927H92.7389L82.03 13.5759ZM125.24 70H113.991V4.39683H132.079L150.437 58.8412V4.39683H161.686V70H143.598L125.24 15.5557V70ZM182.809 70H171.11V43.4528L185.149 4.39683H202.067L216.105 43.4528V70H204.407V53.8017H182.809V70ZM193.608 13.5759L182.899 43.9927H204.317L193.608 13.5759ZM236.817 70H225.569V4.39683H243.657L262.015 58.8412V4.39683H273.264V70H255.175L236.817 15.5557V70ZM294.387 70H282.688V43.4528L296.726 4.39683H313.645L327.683 43.4528V70H315.984V53.8017H294.387V70ZM305.186 13.5759L294.477 43.9927H315.895L305.186 13.5759Z" fill="black"/>
<path d="M361.831 35.8936L382.258 4.39683H399.807V44.8026H409.076V54.6116H399.807V70H388.108V54.6116H359.671V42.1029C359.671 40.0331 360.121 38.5033 361.831 35.8936ZM371.37 44.8026H388.108V14.3858L372.269 39.6732C371.73 40.5731 371.37 41.473 371.37 42.7328V44.8026ZM427.469 24.1048H415.95C416.22 11.5961 425.219 3.49693 437.728 3.49693C450.686 3.49693 459.326 12.136 459.326 23.2049C459.326 31.754 455.636 37.1534 447.447 42.1929L431.248 52.1819C428.279 53.9817 427.199 56.6814 427.379 60.191H458.246V70H415.68V59.8311C415.68 53.1718 418.65 47.6823 424.679 43.9927L441.327 33.7338C445.467 31.214 447.627 28.2443 447.627 23.4748C447.627 17.4455 443.937 13.3059 437.728 13.3059C431.248 13.3059 427.829 17.3555 427.469 24.1048ZM506.156 41.9229L487.618 70H473.939L489.058 47.4124C476.189 47.7723 466.56 39.5832 466.56 27.7044V23.2949C466.56 11.7761 475.919 3.49693 488.158 3.49693H489.418C501.656 3.49693 511.015 11.7761 511.015 23.2949V26.8045C511.015 33.6438 510.025 36.0735 506.156 41.9229ZM499.317 27.4344V23.5648C499.317 16.9055 495.267 13.3059 488.788 13.3059C482.308 13.3059 478.259 16.9055 478.259 23.5648V27.4344C478.259 34.0038 482.308 37.6034 488.788 37.6034C495.267 37.6034 499.317 34.0038 499.317 27.4344Z" fill="black"/>
</g>
<defs>
<clipPath id="clip0_73_5">
<rect width="512" height="73" fill="white"/>
</clipPath>
</defs>
</svg>
